<svg xmlns="http://www.w3.org/2000/svg" viewBox="0 0 64 55">
    <title>Sprout Sitemaps</title>
    <g>
        <g>
            <path
                d="M62,37H56.5V27a2,2,0,0,0-2-2h-21V18H39a2,2,0,0,0,2-2V2a2,2,0,0,0-2-2H25a2,2,0,0,0-2,2V16a2,2,0,0,0,2,2h5.5v7H9.5a2,2,0,0,0-2,2V37H2a2,2,0,0,0-2,2V53a2,2,0,0,0,2,2H16a2,2,0,0,0,2-2V39a2,2,0,0,0-2-2H10.5V28h20v9H25a2,2,0,0,0-2,2V53a2,2,0,0,0,2,2H39a2,2,0,0,0,2-2V39a2,2,0,0,0-2-2H33.5V28h20v9H48a2,2,0,0,0-2,2V53a2,2,0,0,0,2,2H62a2,2,0,0,0,2-2V39A2,2,0,0,0,62,37Z"/>
        </g>
    </g>
</svg>