<svg xmlns="http://www.w3.org/2000/svg" viewBox="0 0 100 100">
    <title>Sprout Sitemaps</title>
    <g>
        <g>
            <path
                d="M100,50A50,50,0,1,1,50,0,50,50,0,0,1,100,50ZM80,56H74.5V46a2,2,0,0,0-2-2h-21V37H57a2,2,0,0,0,2-2V21a2,2,0,0,0-2-2H43a2,2,0,0,0-2,2V35a2,2,0,0,0,2,2h5.5v7h-21a2,2,0,0,0-2,2V56H20a2,2,0,0,0-2,2V72a2,2,0,0,0,2,2H34a2,2,0,0,0,2-2V58a2,2,0,0,0-2-2H28.5V47h20v9H43a2,2,0,0,0-2,2V72a2,2,0,0,0,2,2H57a2,2,0,0,0,2-2V58a2,2,0,0,0-2-2H51.5V47h20v9H66a2,2,0,0,0-2,2V72a2,2,0,0,0,2,2H80a2,2,0,0,0,2-2V58A2,2,0,0,0,80,56Z"
                style="fill:#46b649"/>
        </g>
    </g>
</svg>