<svg xmlns="http://www.w3.org/2000/svg" viewBox="0 0 100 100">
    <g>
        <g>
            <path style="fill:#46b649;"
                  d="M40.92,55.62c0,3.65,1.83,6.3,5.48,6.3,4.81,0,9.21-6.14,10.12-11.28l1.74-9.38a14.67,14.67,0,0,0-4.15-.58C46.81,40.68,40.92,47.57,40.92,55.62Z"/>
            <path style="fill:#46b649;"
                  d="M50,0a50,50,0,1,0,50,50A50,50,0,0,0,50,0ZM62.57,66.4c-3.32,0-6.38-2.24-6.14-7.3H56.1c-2.9,4.9-6.72,7.3-11.69,7.3-4.82,0-9-3.9-9-10.45A19.59,19.59,0,0,1,55.11,36.29,21.77,21.77,0,0,1,64,38l-2.82,15c-1.24,6.3-.24,9.2,2.49,9.29,4.23.08,9-5.56,9-15.18,0-12-7.22-20.66-20.07-20.66C39,26.5,27.65,37.2,27.65,54c0,13.86,9,22.4,21.32,22.4a25.89,25.89,0,0,0,12.53-2.9l1.32,3.56a30.17,30.17,0,0,1-14.76,3.32c-13.61,0-25.14-10-25.14-25.88,0-17.09,11.86-31.86,30.28-31.86,14.43,0,24.14,10.12,24.14,24C77.34,59.1,70.37,66.4,62.57,66.4Z"/>
        </g>
    </g>
</svg>