<svg xmlns="http://www.w3.org/2000/svg" viewBox="0 0 54.42 57.74">
    <path
        d="M62.82,77.1a30.17,30.17,0,0,1-14.76,3.32c-13.61,0-25.14-10-25.14-25.88,0-17.09,11.86-31.86,30.28-31.86,14.43,0,24.14,10.12,24.14,24,0,12.44-7,19.74-14.77,19.74-3.32,0-6.38-2.24-6.14-7.3H56.1c-2.9,4.9-6.72,7.3-11.69,7.3-4.82,0-9-3.9-9-10.45A19.59,19.59,0,0,1,55.11,36.29,21.77,21.77,0,0,1,64,38l-2.82,15c-1.24,6.3-.24,9.2,2.49,9.29,4.23.08,9-5.56,9-15.18,0-12-7.22-20.66-20.07-20.66C39,26.5,27.65,37.2,27.65,54c0,13.86,9,22.4,21.32,22.4a25.89,25.89,0,0,0,12.53-2.9ZM58.26,41.26a14.67,14.67,0,0,0-4.15-.58c-7.3,0-13.19,6.89-13.19,14.94,0,3.65,1.83,6.3,5.48,6.3,4.81,0,9.21-6.14,10.12-11.28Z"
        transform="translate(-22.92 -22.68)"/>
</svg>